<svg xmlns="http://www.w3.org/2000/svg" version="1.1" xmlns:xlink="http://www.w3.org/1999/xlink" xmlns:svgjs="http://svgjs.com/svgjs" width="1440" height="560" preserveAspectRatio="none" viewBox="0 0 1440 560"><g mask="url(&quot;#SvgjsMask1055&quot;)" fill="none"><rect width="1440" height="560" x="0" y="0" fill="url(#SvgjsLinearGradient1056)"></rect><path d="M1488 560L0 560 L0 388.17Q45.58 313.75, 120 359.34Q146.18 313.51, 192 339.69Q284.05 311.74, 312 403.78Q327.86 347.64, 384 363.5Q458.49 317.99, 504 392.48Q569.41 337.89, 624 403.31Q646.91 354.22, 696 377.13Q726.21 335.34, 768 365.55Q816.26 341.81, 840 390.07Q908.74 338.81, 960 407.55Q985.27 312.82, 1080 338.09Q1122.59 308.67, 1152 351.26Q1229.49 308.75, 1272 386.24Q1318.22 360.47, 1344 406.69Q1357.28 347.97, 1416 361.24Q1457.96 331.2, 1488 373.16z" fill="#182f5d"></path><path d="M1512 560L0 560 L0 441.7Q43.93 365.63, 120 409.56Q165.3 382.86, 192 428.15Q239.33 403.48, 264 450.8Q305.82 372.62, 384 414.44Q453.53 363.97, 504 433.5Q521.21 378.71, 576 395.91Q646.95 346.87, 696 417.82Q740.96 390.78, 768 435.74Q816.84 412.58, 840 461.42Q876.8 378.23, 960 415.03Q1007.62 390.64, 1032 438.26Q1078.84 413.1, 1104 459.94Q1119.32 403.25, 1176 418.57Q1224.3 394.87, 1248 443.17Q1278.35 401.51, 1320 431.86Q1341.73 381.59, 1392 403.32Q1458.5 349.81, 1512 416.31z" fill="#25467d"></path><path d="M1488 560L0 560 L0 506.44Q13.81 448.25, 72 462.06Q117.88 435.94, 144 481.81Q187.52 453.33, 216 496.85Q265.56 474.41, 288 523.97Q341.76 457.74, 408 511.5Q437.08 468.58, 480 497.66Q526.88 424.54, 600 471.41Q629.26 428.67, 672 457.93Q732.67 446.61, 744 507.28Q761.31 452.59, 816 469.9Q883.97 417.87, 936 485.83Q1007.27 437.1, 1056 508.37Q1109.89 442.26, 1176 496.16Q1194.1 442.25, 1248 460.35Q1331.1 423.45, 1368 506.55Q1437.62 456.17, 1488 525.79z" fill="#356cb1"></path><path d="M1512 560L0 560 L0 534.43Q83.18 497.61, 120 580.79Q141.93 482.72, 240 504.65Q311.59 456.24, 360 527.82Q442.11 489.93, 480 572.04Q506.95 478.99, 600 505.94Q648.04 481.99, 672 530.03Q743.15 481.18, 792 552.34Q803.89 492.23, 864 504.12Q933.14 453.26, 984 522.41Q1041.37 507.78, 1056 565.15Q1102 491.15, 1176 537.15Q1205.61 494.75, 1248 524.36Q1278.22 482.58, 1320 512.79Q1372.1 492.88, 1392 544.98Q1458.93 491.91, 1512 558.84z" fill="white"></path></g><defs><mask id="SvgjsMask1055"><rect width="1440" height="560" fill="#ffffff"></rect></mask><linearGradient x1="15.28%" y1="-39.29%" x2="84.72%" y2="139.29%" gradientUnits="userSpaceOnUse" id="SvgjsLinearGradient1056"><stop stop-color="#0e2a47" offset="0"></stop><stop stop-color="#00459e" offset="1"></stop></linearGradient></defs></svg>